<svg width="278" height="85" viewBox="0 0 278 85" fill="none" xmlns="http://www.w3.org/2000/svg">
<path d="M0.703125 35.1C0.703125 24.7667 3.66979 16.4333 9.60313 10.1C15.6031 3.69999 23.5698 0.499994 33.5031 0.499994C43.5031 0.499994 51.4698 3.66666 57.4031 10C63.3365 16.3333 66.3031 24.7 66.3031 35.1C66.3031 45.4333 63.3031 53.8 57.3031 60.2C51.3698 66.5333 43.4365 69.7 33.5031 69.7C23.5031 69.7 15.5365 66.5333 9.60313 60.2C3.66979 53.8667 0.703125 45.5 0.703125 35.1ZM21.6031 20.1C18.6698 23.7667 17.2031 28.7667 17.2031 35.1C17.2031 41.4333 18.6698 46.4667 21.6031 50.2C24.5365 53.8667 28.5031 55.7 33.5031 55.7C38.5031 55.7 42.4698 53.8667 45.4031 50.2C48.3365 46.4667 49.8031 41.4333 49.8031 35.1C49.8031 28.7667 48.3365 23.7667 45.4031 20.1C42.4698 16.3667 38.5031 14.5 33.5031 14.5C28.5031 14.5 24.5365 16.3667 21.6031 20.1ZM95.2359 20.1C92.3026 23.7667 90.8359 28.7667 90.8359 35.1C90.8359 41.4333 92.3026 46.4667 95.2359 50.2C98.1693 53.8667 102.136 55.7 107.136 55.7C112.136 55.7 116.103 53.8667 119.036 50.2C121.969 46.4667 123.436 41.4333 123.436 35.1C123.436 28.7667 121.969 23.7667 119.036 20.1C116.103 16.3667 112.136 14.5 107.136 14.5C102.136 14.5 98.1693 16.3667 95.2359 20.1ZM144.136 77.4L126.636 84.1L106.736 69.7C96.8693 69.6333 89.0026 66.4333 83.1359 60.1C77.2693 53.7667 74.3359 45.4333 74.3359 35.1C74.3359 24.7667 77.3026 16.4333 83.2359 10.1C89.2359 3.69999 97.2026 0.499994 107.136 0.499994C117.136 0.499994 125.103 3.66666 131.036 10C136.969 16.3333 139.936 24.7 139.936 35.1C139.936 42.1667 138.503 48.3667 135.636 53.7C132.769 59.0333 128.736 63.1 123.536 65.9L144.136 77.4ZM189.857 43V1.6H205.257V42.9C205.257 51.7 202.79 58.4333 197.857 63.1C192.924 67.7 186.257 70 177.857 70C169.59 70 162.957 67.7 157.957 63.1C152.957 58.5 150.457 52 150.457 43.6V1.6H165.857V43.5C165.857 51.8333 169.857 56 177.857 56C185.857 56 189.857 51.6667 189.857 43ZM237.454 42.8H253.654L252.954 40.4C251.021 33.8667 249.421 28.3 248.154 23.7C246.954 19.1 246.221 16.1333 245.954 14.8L245.554 12.8C245.021 16.4667 242.554 25.6667 238.154 40.4L237.454 42.8ZM261.454 69L257.354 55.2H233.754L229.654 69H213.554L236.054 1.6H255.454L277.954 69H261.454Z" fill="#3EB7FF"/>
</svg>
