<svg width="390" height="844" viewBox="0 0 390 844" fill="none" xmlns="http://www.w3.org/2000/svg">
<g clip-path="url(#clip0_4_43)">
<rect width="390" height="844" fill="#3EB7FF"/>
<path d="M56.7031 422.1C56.7031 411.767 59.6698 403.433 65.6031 397.1C71.6031 390.7 79.5698 387.5 89.5031 387.5C99.5031 387.5 107.47 390.667 113.403 397C119.336 403.333 122.303 411.7 122.303 422.1C122.303 432.433 119.303 440.8 113.303 447.2C107.37 453.533 99.4365 456.7 89.5031 456.7C79.5031 456.7 71.5365 453.533 65.6031 447.2C59.6698 440.867 56.7031 432.5 56.7031 422.1ZM77.6031 407.1C74.6698 410.767 73.2031 415.767 73.2031 422.1C73.2031 428.433 74.6698 433.467 77.6031 437.2C80.5365 440.867 84.5031 442.7 89.5031 442.7C94.5031 442.7 98.4698 440.867 101.403 437.2C104.336 433.467 105.803 428.433 105.803 422.1C105.803 415.767 104.336 410.767 101.403 407.1C98.4698 403.367 94.5031 401.5 89.5031 401.5C84.5031 401.5 80.5365 403.367 77.6031 407.1ZM151.236 407.1C148.303 410.767 146.836 415.767 146.836 422.1C146.836 428.433 148.303 433.467 151.236 437.2C154.169 440.867 158.136 442.7 163.136 442.7C168.136 442.7 172.103 440.867 175.036 437.2C177.969 433.467 179.436 428.433 179.436 422.1C179.436 415.767 177.969 410.767 175.036 407.1C172.103 403.367 168.136 401.5 163.136 401.5C158.136 401.5 154.169 403.367 151.236 407.1ZM200.136 464.4L182.636 471.1L162.736 456.7C152.869 456.633 145.003 453.433 139.136 447.1C133.269 440.767 130.336 432.433 130.336 422.1C130.336 411.767 133.303 403.433 139.236 397.1C145.236 390.7 153.203 387.5 163.136 387.5C173.136 387.5 181.103 390.667 187.036 397C192.969 403.333 195.936 411.7 195.936 422.1C195.936 429.167 194.503 435.367 191.636 440.7C188.769 446.033 184.736 450.1 179.536 452.9L200.136 464.4ZM245.857 430V388.6H261.257V429.9C261.257 438.7 258.79 445.433 253.857 450.1C248.924 454.7 242.257 457 233.857 457C225.59 457 218.957 454.7 213.957 450.1C208.957 445.5 206.457 439 206.457 430.6V388.6H221.857V430.5C221.857 438.833 225.857 443 233.857 443C241.857 443 245.857 438.667 245.857 430ZM293.454 429.8H309.654L308.954 427.4C307.021 420.867 305.421 415.3 304.154 410.7C302.954 406.1 302.221 403.133 301.954 401.8L301.554 399.8C301.021 403.467 298.554 412.667 294.154 427.4L293.454 429.8ZM317.454 456L313.354 442.2H289.754L285.654 456H269.554L292.054 388.6H311.454L333.954 456H317.454Z" fill="white"/>
</g>
<defs>
<clipPath id="clip0_4_43">
<rect width="390" height="844" fill="white"/>
</clipPath>
</defs>
</svg>
